<svg width="52" height="42" viewBox="0 0 52 42" fill="none" xmlns="http://www.w3.org/2000/svg">
<mask id="mask0_20_1371" style="mask-type:luminance" maskUnits="userSpaceOnUse" x="0" y="0" width="52" height="42">
<path d="M1 3.1696C1 2.59418 1.27725 2.04234 1.77077 1.63546C2.26429 1.22858 2.93364 1 3.63158 1H19.4211L26 7.50879H48.3684C49.0664 7.50879 49.7357 7.73737 50.2292 8.14425C50.7227 8.55113 51 9.10297 51 9.67839V37.8831C51 38.4586 50.7227 39.0104 50.2292 39.4173C49.7357 39.8242 49.0664 40.0527 48.3684 40.0527H3.63158C2.93364 40.0527 2.26429 39.8242 1.77077 39.4173C1.27725 39.0104 1 38.4586 1 37.8831V3.1696Z" fill="white" stroke="white" stroke-width="2" stroke-linejoin="round"/>
<path d="M20.4736 17.272H31.5263L35.2105 21.1013L26 30.2896L16.7894 21.1013L20.4736 17.272Z" fill="black" stroke="black" stroke-width="2" stroke-linecap="round" stroke-linejoin="round"/>
</mask>
<g mask="url(#mask0_20_1371)">
<path d="M-5.57727 -5.50879H57.5806V46.5615H-5.57727V-5.50879Z" fill="white"/>
</g>
</svg>
