<svg width="50" height="50" viewBox="0 0 50 50" fill="none" xmlns="http://www.w3.org/2000/svg">
<path fill-rule="evenodd" clip-rule="evenodd" d="M44.2929 32.0571H25.925C28.0091 31.8715 29.9416 30.8901 31.3209 29.3167C32.7003 27.7433 33.4204 25.699 33.3316 23.6085C33.2429 21.518 32.3522 19.5421 30.8445 18.0912C29.3368 16.6404 27.3281 15.8262 25.2357 15.8179H19.2357C20.1327 14.6117 20.7743 13.2352 21.1212 11.7726C21.4682 10.3101 21.5131 8.79209 21.2534 7.31154C20.9936 5.83099 20.4347 4.41897 19.6106 3.16182C18.7865 1.90467 17.7147 0.828801 16.4607 0L44.2929 0C45.5703 0.00189257 46.7949 0.510698 47.6975 1.41469C48.6002 2.31867 49.1071 3.54394 49.1071 4.82143V27.2464C49.1071 29.9036 46.95 32.0607 44.2929 32.0607V32.0571ZM10.35 15.825C11.2294 15.8455 12.104 15.6899 12.9225 15.3675C13.7409 15.0451 14.4866 14.5624 15.1158 13.9477C15.745 13.3329 16.245 12.5986 16.5863 11.7879C16.9277 10.9772 17.1035 10.1064 17.1035 9.22679C17.1035 8.34714 16.9277 7.47637 16.5863 6.66566C16.245 5.85494 15.745 5.12064 15.1158 4.50592C14.4866 3.89119 13.7409 3.40844 12.9225 3.08605C12.104 2.76365 11.2294 2.60811 10.35 2.62857C8.62662 2.66867 6.98733 3.38144 5.78265 4.61448C4.57797 5.84751 3.90352 7.50294 3.90352 9.22679C3.90352 10.9506 4.57797 12.6061 5.78265 13.8391C6.98733 15.0721 8.62662 15.7849 10.35 15.825ZM28.9036 23.9536C28.9036 21.925 27.2607 20.2821 25.2357 20.2821H10.3536C7.84348 20.2821 5.4362 21.2793 3.66131 23.0542C1.88641 24.8291 0.889282 27.2363 0.889282 29.7464V34.05C0.889282 35.95 2.43214 37.4893 4.33214 37.4893H4.94642L5.95357 46.8107C6.04776 47.6859 6.46184 48.4955 7.11637 49.0841C7.77089 49.6727 8.61974 49.9989 9.5 50H11.2929C12.1544 49.9996 12.9868 49.6878 13.6366 49.1221C14.2863 48.5563 14.7097 47.7747 14.8286 46.9214L17.5179 27.6214H25.2321C27.2571 27.6214 28.9 25.9786 28.9 23.9536H28.9036Z" fill="white"/>
</svg>
