<svg width="93" height="52" viewBox="0 0 1192 944" fill="none" xmlns="http://www.w3.org/2000/svg">
<path d="M323.4 363C310.2 361.4 287 359.2 253.8 356.4C235.4 355.6 220.6 355.2 209.4 355.2C195 355.2 181.4 355.6 168.6 356.4V263.4H183.6C216.4 263.4 250.4 265.6 285.6 270C296.8 271.6 309.4 273.8 323.4 276.6V363ZM224.4 559.2C224.4 550.8 223.8 544.8 222.6 541.2C221.4 537.2 219.4 534.6 216.6 533.4C213.8 531.8 209 530.6 202.2 529.8L128.4 520.8C84.8 516 55.4 501.8 40.2 478.2C33.4 468.2 28.8 456 26.4 441.6C24 427.2 22.8 409.6 22.8 388.8C22.8 344.4 34.2 312.4 57 292.8C75.4 276.8 104.2 267.4 143.4 264.6V385.2C143.4 390.4 143.6 394.8 144 398.4C144.4 402 145.2 404.8 146.4 406.8C147.6 409.2 149.6 411 152.4 412.2C155.2 413 159.4 413.6 165 414L247.8 424.2C265 426.6 279 429.6 289.8 433.2C300.6 436.8 309.8 442.4 317.4 450C335.4 468.8 344.4 502.2 344.4 550.2C344.4 601 333.2 636.6 310.8 657C300.8 666.2 288.6 673 274.2 677.4C260.2 681.4 243.6 684 224.4 685.2V559.2ZM192.6 685.8C152.6 685.8 115.4 684 81 680.4C60.6 678.4 45.2 676.4 34.8 674.4V586.8C58.4 588.8 85.4 590.8 115.8 592.8C135 593.6 148.6 594 156.6 594C178.2 594 192.4 593.4 199.2 592.2V685.8H192.6ZM406.383 268.2H526.383V681H406.383V268.2ZM551.583 584.4H679.983V681H551.583V584.4ZM697.392 268.2H1035.19V364.2H697.392V268.2ZM805.992 388.2H925.992V681H805.992V388.2Z" fill="#E4040F"/>
<path d="M1113.83 232.528C1111.75 225.579 1107.8 219.146 1102.44 213.965C1097.07 208.784 1090.51 205.063 1083.49 203.226L974.653 174.733C973.178 174.262 971.645 174.184 970.215 174.506C968.784 174.828 967.508 175.538 966.521 176.563L919.622 225.127C918.159 226.643 917.425 228.743 917.583 230.966C917.741 233.189 918.777 235.353 920.463 236.981C922.15 238.61 924.348 239.57 926.575 239.65C928.803 239.73 930.876 238.923 932.339 237.408L969.268 199.168L997.228 292.551C999.308 299.5 1003.26 305.932 1008.62 311.113C1013.99 316.294 1020.55 320.016 1027.57 321.853L1136.89 350.458C1138.3 350.826 1139.74 350.839 1141.08 350.496C1142.42 350.153 1143.61 349.465 1144.55 348.497C1145.48 347.528 1146.13 346.312 1146.42 344.961C1146.72 343.61 1146.66 342.169 1146.24 340.773L1113.83 232.528ZM1025.61 334.002L1082.7 348.93L1051.8 380.92C1050.4 382.376 1048.42 383.179 1046.28 383.163C1032.59 383.083 1018.76 380.195 1005.65 374.679C992.529 369.162 980.405 361.133 970.019 351.087C948.159 329.976 936.424 302.656 935.296 275.994C935.206 273.859 935.939 271.857 937.345 270.399L968.232 238.414L985.16 294.931C987.934 304.195 993.198 312.77 1000.35 319.678C1007.5 326.585 1016.25 331.552 1025.61 334.002Z" fill="white"/>
</svg>
