<svg width="46" height="45" viewBox="0 0 46 45" fill="none" xmlns="http://www.w3.org/2000/svg">
<path fill-rule="evenodd" clip-rule="evenodd" d="M24.1041 34.3959C23.8111 34.1033 23.414 33.939 23 33.939C22.5859 33.939 22.1888 34.1033 21.8958 34.3959L14.6041 41.6876C14.4506 41.8306 14.3275 42.0031 14.2421 42.1948C14.1567 42.3865 14.1108 42.5934 14.1071 42.8032C14.1034 43.013 14.1419 43.2214 14.2205 43.4159C14.2991 43.6105 14.4161 43.7872 14.5645 43.9356C14.7128 44.084 14.8896 44.2009 15.0841 44.2795C15.2787 44.3581 15.4871 44.3967 15.6969 44.393C15.9067 44.3893 16.1136 44.3434 16.3052 44.258C16.4969 44.1726 16.6694 44.0494 16.8125 43.8959L23 37.7084L29.1875 43.8959C29.3305 44.0494 29.503 44.1726 29.6947 44.258C29.8863 44.3434 30.0932 44.3893 30.303 44.393C30.5128 44.3967 30.7212 44.3581 30.9158 44.2795C31.1103 44.2009 31.2871 44.084 31.4354 43.9356C31.5838 43.7872 31.7008 43.6105 31.7794 43.4159C31.858 43.2214 31.8966 43.013 31.8929 42.8032C31.8891 42.5934 31.8432 42.3865 31.7578 42.1948C31.6724 42.0031 31.5493 41.8306 31.3958 41.6876L24.1041 34.3959ZM23 0.604248C23.4144 0.604248 23.8118 0.768868 24.1048 1.06189C24.3978 1.35492 24.5625 1.75235 24.5625 2.16675V6.33342C24.5625 6.74782 24.3978 7.14524 24.1048 7.43827C23.8118 7.7313 23.4144 7.89592 23 7.89592C22.5856 7.89592 22.1881 7.7313 21.8951 7.43827C21.6021 7.14524 21.4375 6.74782 21.4375 6.33342V2.16675C21.4375 1.75235 21.6021 1.35492 21.8951 1.06189C22.1881 0.768868 22.5856 0.604248 23 0.604248Z" fill="white"/>
<path fill-rule="evenodd" clip-rule="evenodd" d="M42.5833 37.0627C42.9526 37.0627 43.3184 36.9899 43.6596 36.8486C44.0008 36.7072 44.3109 36.5001 44.572 36.2389C44.8332 35.9777 45.0404 35.6677 45.1817 35.3265C45.323 34.9852 45.3958 34.6195 45.3958 34.2502V7.5835C45.3958 7.21415 45.323 6.84843 45.1817 6.5072C45.0404 6.16597 44.8332 5.85592 44.572 5.59476C44.3109 5.33359 44.0008 5.12643 43.6596 4.98509C43.3184 4.84374 42.9526 4.771 42.5833 4.771H3.41663C2.6707 4.771 1.95533 5.06731 1.42789 5.59476C0.900442 6.1222 0.604126 6.83757 0.604126 7.5835V34.2502C0.604126 35.8043 1.86246 37.0627 3.41663 37.0627H42.5833ZM18.3125 23.0002C18.3125 22.5858 18.1478 22.1883 17.8548 21.8953C17.5618 21.6023 17.1644 21.4377 16.75 21.4377C16.3356 21.4377 15.9381 21.6023 15.6451 21.8953C15.3521 22.1883 15.1875 22.5858 15.1875 23.0002V27.1668C15.1875 27.5812 15.3521 27.9787 15.6451 28.2717C15.9381 28.5647 16.3356 28.7293 16.75 28.7293C17.1644 28.7293 17.5618 28.5647 17.8548 28.2717C18.1478 27.9787 18.3125 27.5812 18.3125 27.1668V23.0002ZM23 17.271C23.4144 17.271 23.8118 17.4356 24.1048 17.7286C24.3978 18.0217 24.5625 18.4191 24.5625 18.8335V27.1668C24.5625 27.5812 24.3978 27.9787 24.1048 28.2717C23.8118 28.5647 23.4144 28.7293 23 28.7293C22.5856 28.7293 22.1881 28.5647 21.8951 28.2717C21.6021 27.9787 21.4375 27.5812 21.4375 27.1668V18.8335C21.4375 18.4191 21.6021 18.0217 21.8951 17.7286C22.1881 17.4356 22.5856 17.271 23 17.271ZM30.8125 14.6668C30.8125 14.2524 30.6478 13.855 30.3548 13.562C30.0618 13.2689 29.6644 13.1043 29.25 13.1043C28.8356 13.1043 28.4381 13.2689 28.1451 13.562C27.8521 13.855 27.6875 14.2524 27.6875 14.6668V27.1668C27.6875 27.5812 27.8521 27.9787 28.1451 28.2717C28.4381 28.5647 28.8356 28.7293 29.25 28.7293C29.6644 28.7293 30.0618 28.5647 30.3548 28.2717C30.6478 27.9787 30.8125 27.5812 30.8125 27.1668V14.6668Z" fill="white"/>
</svg>
