<svg width="42" height="36" viewBox="0 0 42 36" fill="none" xmlns="http://www.w3.org/2000/svg">
<path d="M41.3125 33.625C41.3125 34.0394 41.1479 34.4368 40.8549 34.7299C40.5618 35.0229 40.1644 35.1875 39.75 35.1875H2.25C1.8356 35.1875 1.43817 35.0229 1.14515 34.7299C0.85212 34.4368 0.6875 34.0394 0.6875 33.625C0.6875 33.2106 0.85212 32.8132 1.14515 32.5201C1.43817 32.2271 1.8356 32.0625 2.25 32.0625H39.75C40.1644 32.0625 40.5618 32.2271 40.8549 32.5201C41.1479 32.8132 41.3125 33.2106 41.3125 33.625ZM41.3125 3.9375V25.8125C41.3125 26.6413 40.9833 27.4362 40.3972 28.0222C39.8112 28.6083 39.0163 28.9375 38.1875 28.9375H3.8125C2.9837 28.9375 2.18884 28.6083 1.60279 28.0222C1.01674 27.4362 0.6875 26.6413 0.6875 25.8125V3.9375C0.6875 3.1087 1.01674 2.31384 1.60279 1.72779C2.18884 1.14174 2.9837 0.8125 3.8125 0.8125H38.1875C39.0163 0.8125 39.8112 1.14174 40.3972 1.72779C40.9833 2.31384 41.3125 3.1087 41.3125 3.9375ZM28.0312 14.875C28.0312 14.6239 27.9706 14.3766 27.8547 14.1539C27.7387 13.9312 27.5709 13.7397 27.3652 13.5957L19.5527 8.12695C19.3186 7.96295 19.044 7.86632 18.7588 7.84756C18.4736 7.8288 18.1887 7.88864 17.9351 8.02056C17.6815 8.15248 17.469 8.35143 17.3207 8.59575C17.1723 8.84008 17.0938 9.12041 17.0938 9.40625V20.3438C17.0938 20.6296 17.1723 20.9099 17.3207 21.1542C17.469 21.3986 17.6815 21.5975 17.9351 21.7294C18.1887 21.8614 18.4736 21.9212 18.7588 21.9024C19.044 21.8837 19.3186 21.787 19.5527 21.623L27.3652 16.1543C27.5709 16.0103 27.7387 15.8188 27.8547 15.5961C27.9706 15.3734 28.0312 15.1261 28.0312 14.875Z" fill="white"/>
</svg>
